<?xml version="1.0" standalone="no"?>
<!DOCTYPE svg PUBLIC "-//W3C//DTD SVG 20010904//EN"
 "http://www.w3.org/TR/2001/REC-SVG-20010904/DTD/svg10.dtd">
<svg version="1.0" xmlns="http://www.w3.org/2000/svg"
 width="401.000000pt" height="401.000000pt" viewBox="0 0 401.000000 401.000000"
 preserveAspectRatio="xMidYMid meet">
<metadata>
Created by potrace 1.14, written by Peter Selinger 2001-2017
</metadata>
<g transform="translate(0.000000,401.000000) scale(0.100000,-0.100000)"
fill="#000000" stroke="none">
<path d="M30 2564 c0 -6 139 -162 203 -227 l27 -29 0 36 0 35 79 3 79 3 -64
70 c-36 39 -72 80 -81 93 -14 21 -22 22 -129 22 -63 0 -114 -3 -114 -6z"/>
<path d="M599 2478 l-83 -93 80 -5 80 -5 -1 -34 -1 -33 45 48 c24 27 65 72 90
99 24 28 58 65 75 83 l30 32 -116 0 -116 0 -83 -92z"/>
<path d="M2578 2517 c-66 -13 -116 -58 -132 -120 -18 -70 -13 -291 8 -342 20
-50 68 -83 132 -93 82 -13 444 -8 489 7 54 18 93 57 106 106 17 61 14 302 -5
345 -20 49 -62 83 -119 97 -38 9 -430 9 -479 0z m443 -149 c1 -7 2 -70 3 -140
l1 -128 -210 0 -210 0 2 127 c1 71 2 134 2 141 1 9 49 12 206 12 157 0 205 -3
206 -12z"/>
<path d="M939 2488 c0 -39 0 -486 0 -510 1 -17 22 -18 306 -18 l305 0 0 68 0
67 -217 0 -218 0 -3 43 c-3 35 0 42 15 43 10 0 102 1 206 2 l187 1 0 58 0 58
-205 0 -205 0 0 45 0 45 220 0 220 0 0 65 0 65 -305 0 -305 0 -1 -32z"/>
<path d="M1619 2488 c0 -48 -1 -490 0 -510 1 -16 12 -18 86 -18 l85 0 0 202
c0 193 1 200 18 180 9 -11 80 -102 157 -201 l140 -181 133 0 132 0 0 280 0
280 -85 0 -85 0 -1 -42 c0 -24 0 -115 0 -203 l0 -160 -25 30 c-13 17 -84 107
-157 202 l-132 172 -132 0 -133 1 -1 -32z"/>
<path d="M3260 2240 l0 -280 85 0 85 0 1 203 c0 184 1 200 15 180 9 -12 23
-31 32 -41 10 -11 73 -92 142 -180 l125 -161 133 -1 132 0 0 280 0 280 -85 0
-85 0 -2 -200 -3 -201 -155 200 -155 200 -132 0 -133 1 0 -280z"/>
<path d="M675 2137 l3 -37 -79 0 c-44 0 -79 -2 -79 -4 0 -3 19 -26 43 -51 23
-26 60 -67 83 -92 l41 -45 113 1 c62 0 114 2 116 3 1 2 -53 62 -120 133 -123
129 -123 129 -121 92z"/>
<path d="M128 2037 c-64 -67 -115 -123 -113 -125 1 -2 53 -3 116 -4 l113 -1
83 89 c45 49 83 92 83 97 0 4 -34 7 -75 7 l-75 0 0 30 c0 17 -3 30 -7 29 -5 0
-60 -55 -125 -122z"/>
<path d="M1190 1702 c-25 -21 -30 -63 -9 -88 8 -9 34 -25 59 -36 58 -25 79
-45 75 -70 -6 -30 -9 -31 -80 -32 -56 -1 -65 -3 -65 -20 0 -16 7 -18 75 -14
80 4 101 15 108 58 7 40 -21 75 -83 103 -93 43 -87 84 13 84 26 1 51 3 54 6
30 30 -111 39 -147 9z"/>
<path d="M1516 1711 c-3 -5 -8 -67 -12 -139 -5 -121 -5 -130 12 -128 20 3 22
10 26 132 3 89 10 109 22 61 3 -12 19 -53 35 -89 40 -87 57 -84 102 20 18 43
36 81 41 87 4 5 8 -22 9 -60 1 -65 4 -114 7 -141 1 -6 9 -11 17 -11 12 0 18
16 17 47 -2 56 -15 216 -18 221 -2 3 -13 6 -25 5 -16 -1 -28 -19 -58 -88 -20
-48 -39 -90 -43 -93 -3 -3 -19 30 -37 72 -17 43 -35 84 -39 92 -9 16 -48 25
-56 12z"/>
<path d="M2039 1708 c-17 -14 -115 -256 -107 -264 11 -10 37 9 48 37 12 29 15
30 76 28 62 -2 64 -2 74 -35 8 -23 17 -32 31 -31 10 1 19 4 18 7 -2 21 -106
264 -114 267 -6 2 -18 -2 -26 -9z m58 -164 c-3 -3 -25 -4 -50 -2 l-45 3 26 63
26 63 24 -61 c14 -34 22 -63 19 -66z"/>
<path d="M2323 1708 c-10 -14 -10 -254 0 -265 15 -14 33 19 31 57 l-2 40 42 0
c39 0 42 -3 68 -50 16 -28 35 -50 43 -50 21 0 19 19 -9 64 l-23 39 23 35 c31
45 31 86 -1 117 -21 22 -33 25 -93 25 -44 0 -73 -5 -79 -12z m146 -32 c15 -10
14 -58 -2 -81 -10 -13 -28 -18 -63 -19 l-49 -1 -1 50 c0 28 4 53 9 56 12 9 90
4 106 -5z"/>
<path d="M2650 1698 c0 -15 8 -18 43 -18 l42 0 -1 -107 c-1 -119 2 -133 22
-133 11 0 14 24 14 120 l0 120 30 1 c51 2 55 4 58 19 2 13 -14 15 -103 16 -95
0 -105 -2 -105 -18z"/>
</g>
</svg>
